<?xml version="1.0" standalone="no"?>
<!DOCTYPE svg PUBLIC "-//W3C//DTD SVG 20010904//EN"
 "http://www.w3.org/TR/2001/REC-SVG-20010904/DTD/svg10.dtd">
<svg version="1.0" xmlns="http://www.w3.org/2000/svg"
 width="1000.000000pt" height="625.000000pt" viewBox="0 0 1000.000000 625.000000"
 preserveAspectRatio="xMidYMid meet">

<g transform="translate(0.000000,625.000000) scale(0.100000,-0.100000)"
fill="#000000" stroke="none">
<path d="M0 3125 l0 -3125 5000 0 5000 0 0 3125 0 3125 -5000 0 -5000 0 0
-3125z m5088 2602 c15 -16 17 -51 20 -334 l4 -316 124 124 124 124 0 49 c0 44
-4 52 -37 81 -34 29 -38 38 -38 80 0 40 5 51 33 76 57 51 138 34 168 -36 19
-47 2 -101 -40 -126 -31 -18 -33 -22 -35 -82 l-2 -62 -149 -150 -148 -150 -4
-442 c-2 -244 0 -443 4 -443 6 0 151 -20 172 -23 6 -1 9 177 7 463 l-3 465
216 218 216 217 227 0 227 0 68 -67 c67 -66 69 -68 121 -68 64 0 100 -24 123
-82 20 -51 7 -100 -36 -137 -62 -52 -140 -37 -188 34 -19 29 -22 43 -17 79 6
43 5 45 -46 97 l-53 54 -196 0 -195 0 -188 -188 -187 -187 2 -465 3 -464 48
-18 47 -18 0 313 0 313 60 59 60 59 -6 52 c-5 40 -2 59 12 83 51 87 186 71
213 -25 28 -100 -81 -189 -169 -139 -24 13 -27 11 -82 -43 l-58 -56 0 -317 0
-316 25 -11 c14 -7 28 -12 30 -12 3 0 5 66 5 147 l0 148 200 200 199 200 2
128 c1 71 0 130 -2 131 -2 2 -18 11 -35 19 -31 16 -64 69 -64 101 0 35 30 85
59 100 39 20 100 20 129 0 29 -20 52 -65 52 -101 0 -40 -32 -87 -69 -103 l-31
-12 0 -132 0 -131 -205 -205 -204 -205 0 -155 -1 -155 50 -33 50 -32 0 182 0
183 337 337 338 338 57 0 c54 0 57 2 79 36 29 48 74 74 127 74 141 0 208 -159
108 -258 -30 -31 -42 -36 -93 -39 -69 -5 -112 17 -144 72 -18 30 -26 35 -57
35 -35 0 -54 -17 -349 -312 -283 -282 -313 -316 -313 -345 l0 -33 494 0 c478
0 495 1 501 19 3 11 16 26 28 33 107 69 223 -41 157 -149 -39 -64 -152 -63
-182 1 l-11 26 -494 0 -493 0 0 -25 0 -25 423 0 423 0 54 -55 c43 -44 58 -53
77 -49 40 10 73 -4 87 -38 17 -40 4 -81 -30 -97 -35 -16 -47 -14 -79 10 -22
18 -26 28 -23 60 3 36 -1 44 -47 89 l-50 49 -418 3 -417 3 0 -27 0 -28 243 0
242 0 145 -145 145 -145 127 0 c75 0 128 4 128 10 0 5 10 18 22 30 47 43 118
11 118 -52 0 -39 -7 -51 -37 -67 -34 -17 -52 -13 -85 19 l-30 30 -126 0 -127
0 -145 145 -145 145 -237 0 -238 0 0 -30 0 -30 244 0 243 0 232 -228 231 -228
0 -43 c0 -38 5 -48 38 -76 33 -29 37 -38 37 -80 0 -40 -5 -51 -33 -76 -46 -42
-93 -40 -138 5 -50 50 -48 96 6 147 69 65 69 65 -177 311 l-218 218 -232 0
c-128 0 -233 -4 -233 -8 0 -4 18 -26 40 -47 143 -140 260 -400 277 -615 l6
-80 493 0 494 0 0 297 0 297 134 136 133 135 1 83 c0 67 -3 84 -17 95 -21 15
-41 50 -41 72 0 27 55 75 87 75 22 0 46 18 113 85 l85 85 -200 200 -200 200
-130 0 -130 0 -122 -122 c-106 -106 -123 -127 -123 -155 0 -45 -9 -62 -41 -79
-47 -24 -104 2 -109 51 -7 62 20 95 78 95 35 0 47 9 167 130 l130 130 150 0
150 0 225 -225 225 -225 -101 -102 c-98 -99 -101 -104 -97 -140 4 -30 0 -42
-21 -63 -24 -24 -26 -32 -26 -123 l0 -97 -130 -130 -130 -130 0 -279 0 -279
25 23 25 23 0 256 0 256 207 207 c177 177 212 208 238 208 23 1 35 9 50 33 13
20 35 37 61 46 36 13 44 12 78 -4 70 -34 85 -124 28 -177 -15 -14 -39 -28 -54
-32 -39 -9 -95 17 -116 54 -10 18 -25 30 -37 30 -13 0 -89 -68 -213 -193
l-192 -193 0 -257 0 -256 -43 -45 -43 -46 -529 -2 -530 -3 -6 -75 c-4 -41 -9
-90 -13 -107 l-8 -33 489 0 488 0 429 429 429 429 63 -2 c63 -1 64 -1 122 -59
54 -54 60 -57 86 -47 90 34 175 -30 163 -122 -10 -72 -76 -117 -146 -98 -68
18 -100 81 -79 152 11 39 11 39 -37 88 -48 49 -51 50 -108 50 l-59 0 -425
-425 -424 -425 -499 0 -499 0 -6 -22 c-19 -65 -19 -63 -4 -52 10 8 164 12 524
13 l510 2 140 139 140 140 105 0 105 0 117 117 117 116 -6 47 c-7 58 14 94 62
110 80 27 155 -65 115 -141 -17 -31 -67 -51 -108 -44 -36 6 -39 4 -157 -115
l-120 -120 -105 0 -105 0 -145 -145 -145 -145 -515 0 -516 0 -27 -28 c-15 -16
-41 -55 -58 -88 -17 -32 -40 -75 -51 -94 -15 -25 7 -8 73 58 l94 92 510 0 510
0 140 140 140 140 115 0 116 0 74 75 74 75 123 0 c111 0 122 2 128 19 12 38
47 71 86 81 55 15 119 -13 142 -63 21 -43 21 -58 3 -102 -42 -100 -184 -96
-226 6 l-12 29 -112 0 -112 0 -74 -75 -74 -75 -116 0 -115 0 -140 -140 -140
-140 -514 0 -515 0 -303 -302 -304 -303 42 -3 42 -3 277 275 276 276 515 0
514 0 115 115 115 115 365 0 364 0 62 -61 63 -62 34 17 c43 20 58 20 102 2 40
-17 75 -68 75 -111 0 -42 -33 -92 -74 -111 -90 -43 -200 52 -165 143 9 25 5
31 -52 89 l-62 63 -350 1 -350 0 -121 -120 -122 -120 -510 0 -509 0 -255 -255
-255 -255 40 0 c39 0 47 7 265 225 l225 225 515 0 514 0 66 65 65 65 204 0
204 1 51 -50 51 -50 62 6 c61 6 63 5 97 -29 59 -59 60 -116 1 -175 -28 -28
-40 -33 -79 -33 -90 0 -151 93 -112 171 l16 33 -47 48 -47 48 -191 0 -191 0
-64 -65 -64 -65 -516 0 -515 0 -210 -210 c-207 -207 -209 -210 -175 -210 32 0
47 11 140 105 l105 105 210 0 211 0 49 -50 49 -50 391 0 390 0 78 78 c73 74
76 78 71 114 -9 53 2 86 36 103 63 33 126 2 137 -67 5 -32 1 -41 -26 -69 -28
-28 -37 -31 -76 -27 -43 5 -43 5 -131 -83 l-89 -89 -369 0 -370 0 54 -55 54
-55 127 0 126 0 82 -80 82 -80 134 0 c110 0 135 3 135 14 0 8 14 26 32 41 56
47 132 18 144 -56 14 -82 -92 -133 -151 -74 -14 13 -25 29 -25 35 0 6 -50 10
-143 10 l-142 0 -80 80 -80 80 -130 0 -130 0 -125 125 -125 125 -190 0 -190 0
-110 -110 -110 -110 -317 4 -318 5 0 -45 0 -44 533 0 532 0 115 -115 115 -115
171 0 171 0 128 -129 129 -130 61 2 c103 3 165 -53 165 -150 0 -62 -29 -110
-83 -136 -37 -19 -37 -19 -37 -80 l0 -62 -142 -142 -143 -143 -330 0 -330 0
-300 300 -300 300 -227 0 -228 0 0 -170 0 -170 262 0 263 0 87 -87 87 -87 75
-1 c65 0 78 -3 101 -25 105 -98 47 -260 -93 -260 -102 0 -170 89 -143 187 l11
38 -77 77 -78 78 -330 0 c-310 0 -334 -1 -372 -20 -23 -11 -63 -25 -90 -31
-26 -7 -70 -20 -98 -30 -144 -52 -307 -73 -460 -59 -221 21 -364 88 -511 237
-70 71 -73 72 -103 62 -55 -19 -178 -7 -246 24 -172 80 -265 217 -265 390 l0
60 -46 -43 c-99 -91 -223 -123 -484 -123 -236 0 -587 41 -665 79 -105 50 -280
289 -340 465 -37 108 -46 269 -20 339 9 25 19 52 21 60 4 11 -5 19 -28 28 -48
17 -107 79 -137 142 -21 45 -25 70 -25 136 0 70 4 87 28 128 l28 48 -25 56
c-37 81 -49 174 -37 263 17 118 60 195 179 321 l66 70 -4 102 c-4 127 14 206
74 332 51 105 108 170 159 179 43 9 50 26 27 67 -28 49 -34 91 -21 155 25 123
115 272 223 369 115 104 280 194 354 194 38 0 44 3 58 33 48 103 205 242 365
326 198 103 389 148 586 138 l113 -6 29 52 c40 70 100 123 186 162 86 39 154
55 399 96 149 24 197 29 227 21 31 -8 43 -6 65 8 99 65 435 104 483 57z m2190
-1117 c38 -38 47 -78 29 -121 -24 -57 -51 -74 -118 -74 l-58 0 -68 -67 -69
-68 -234 0 -235 0 -85 85 c-82 83 -86 85 -132 85 -36 0 -50 -4 -57 -19 -26
-49 -104 -47 -137 3 -49 75 58 155 122 91 21 -21 34 -25 85 -25 l60 0 86 -85
86 -85 211 0 212 0 63 64 63 63 -12 40 c-23 77 30 142 117 143 33 0 47 -6 71
-30z m1033 -2239 c40 -40 39 -82 -1 -123 -27 -26 -36 -30 -69 -25 -37 5 -42 2
-105 -62 l-66 -67 0 -79 0 -80 -217 -217 -218 -218 -102 0 c-89 0 -104 -2
-115 -19 -48 -69 -158 -37 -158 45 0 84 95 119 151 56 28 -31 30 -32 116 -32
l88 0 202 202 203 203 0 80 0 80 72 72 c69 69 72 75 70 115 -4 89 87 131 149
69z"/>
<path d="M4885 5634 c-208 -43 -255 -63 -255 -109 0 -46 21 -50 148 -31 165
25 162 24 193 56 19 19 29 39 29 59 0 30 -1 31 -47 30 -27 -1 -57 -3 -68 -5z"/>
<path d="M5357 5572 c-36 -39 -12 -86 40 -80 20 2 30 11 38 32 8 24 6 31 -14
47 -29 24 -43 24 -64 1z"/>
<path d="M4270 5520 c-118 -20 -241 -47 -273 -60 -62 -24 -129 -70 -159 -111
-17 -23 -49 -101 -44 -106 3 -4 262 101 340 136 86 40 143 47 256 31 72 -10
95 -10 120 0 22 9 29 17 24 29 -16 39 -25 85 -21 102 6 24 19 25 -243 -21z"/>
<path d="M4766 5429 c-118 -31 -159 -55 -206 -121 -30 -41 -56 -105 -47 -115
3 -3 21 0 39 6 18 6 56 12 83 13 44 3 50 1 50 -17 0 -15 -11 -22 -52 -31 -29
-7 -69 -25 -90 -42 -91 -72 -209 -221 -237 -300 -8 -20 -34 -77 -59 -127 -77
-156 -127 -319 -127 -421 l0 -44 38 19 c20 11 62 45 92 75 32 33 63 56 76 56
22 0 54 -28 54 -48 0 -13 -56 -61 -170 -145 -85 -62 -85 -63 -148 -187 -34
-68 -74 -160 -88 -204 -24 -75 -25 -89 -19 -202 5 -96 3 -139 -10 -205 -11
-55 -15 -105 -11 -144 6 -64 24 -140 32 -132 3 2 11 46 19 98 31 210 113 382
266 560 l60 69 -26 49 c-23 46 -32 81 -20 81 22 0 58 -30 72 -61 l16 -37 51
38 c28 21 81 54 117 74 59 33 69 42 89 89 12 29 46 93 75 142 57 98 71 133
109 273 29 104 68 187 120 255 68 89 85 195 82 505 -1 158 -4 195 -16 202 -26
17 -102 9 -214 -21z"/>
<path d="M4481 5349 c-12 -5 -73 -8 -135 -7 -127 3 -169 -8 -280 -72 -76 -44
-86 -47 -86 -24 0 27 -39 10 -251 -108 -193 -108 -293 -171 -297 -188 -2 -13
19 -15 125 -17 149 -2 176 3 343 63 168 62 254 69 335 29 l56 -27 54 33 55 33
0 54 c0 43 -5 58 -25 77 -13 14 -31 25 -40 25 -31 0 -9 25 25 28 22 2 43 -4
61 -17 32 -24 28 -28 73 72 26 60 26 62 -13 46z"/>
<path d="M3609 5286 c-2 -2 -89 -28 -194 -56 -319 -87 -451 -157 -628 -329
-88 -86 -107 -110 -105 -130 2 -17 12 -29 28 -34 41 -15 208 56 278 117 117
102 207 145 489 236 204 66 223 77 223 128 0 45 -23 72 -62 72 -13 0 -27 -2
-29 -4z"/>
<path d="M6327 5242 c-10 -10 -17 -28 -17 -40 0 -28 34 -62 60 -62 25 0 60 34
60 58 0 53 -68 82 -103 44z"/>
<path d="M5950 5110 c-28 -28 -25 -64 7 -89 43 -34 93 -7 93 50 0 30 -31 59
-62 59 -10 0 -27 -9 -38 -20z"/>
<path d="M3945 4975 c-44 -12 -98 -30 -120 -39 -22 -9 -51 -16 -65 -14 -19 2
-24 -1 -22 -14 2 -10 -1 -18 -5 -18 -239 -8 -386 -31 -467 -72 -60 -30 -233
-156 -240 -175 -8 -19 10 -43 33 -44 9 0 -12 -10 -46 -23 -134 -50 -298 -161
-424 -286 -81 -81 -109 -128 -109 -183 0 -68 76 -125 124 -94 12 8 44 56 71
107 54 102 104 153 174 179 34 12 47 23 54 46 23 71 84 124 225 194 89 45 203
78 301 87 36 3 100 19 141 34 78 29 229 65 238 56 2 -3 -18 -26 -47 -52 -28
-25 -51 -49 -51 -52 0 -4 27 -15 60 -25 33 -9 60 -22 60 -27 0 -13 -4 -13 -96
6 -99 21 -256 14 -366 -15 -179 -47 -368 -152 -394 -220 -24 -60 -27 -62 -118
-102 -99 -42 -120 -58 -147 -111 -48 -94 -32 -158 43 -179 24 -6 60 -20 81
-31 23 -12 76 -24 137 -30 120 -13 131 -8 158 86 13 42 24 62 36 64 18 4 18
-4 14 -119 -5 -103 -11 -139 -36 -212 -47 -138 -124 -237 -184 -237 -26 0 -23
10 24 76 91 131 108 190 66 238 -16 18 -64 39 -158 71 -211 72 -243 78 -375
79 -118 1 -121 0 -197 -36 -150 -71 -238 -190 -263 -355 -6 -39 -4 -46 23 -73
26 -25 38 -30 79 -30 86 1 191 67 213 135 9 28 8 46 -4 89 -18 60 -21 143 -6
166 7 12 10 11 16 -5 3 -11 26 -63 49 -115 24 -52 50 -111 58 -130 12 -30 22
-38 68 -53 71 -22 98 -41 82 -58 -10 -10 -18 -10 -38 -1 -36 16 -121 15 -181
-3 -55 -16 -126 -71 -149 -116 -19 -35 -19 -96 0 -129 8 -14 14 -50 14 -80 l0
-55 -19 40 c-40 81 -100 106 -154 64 -40 -31 -59 -77 -59 -139 0 -114 88 -238
222 -309 107 -57 232 -47 311 25 44 40 76 108 86 184 8 66 26 104 58 126 33
21 198 43 324 44 120 0 106 -15 152 165 69 271 213 455 399 511 37 11 61 23
61 32 0 26 -70 147 -115 199 -25 28 -62 62 -81 74 -47 29 -133 49 -184 42 -32
-5 -41 -2 -46 12 -14 34 22 47 110 40 l79 -7 -7 78 c-7 83 1 111 28 101 12 -5
16 -20 16 -64 0 -71 11 -88 94 -148 80 -57 128 -109 162 -177 14 -29 37 -68
51 -86 45 -59 115 -80 152 -43 31 31 86 220 121 416 44 244 69 327 145 480 36
72 65 142 65 157 0 15 -12 40 -26 57 -47 56 -144 65 -279 26z"/>
<path d="M3284 4956 c-58 -27 -225 -136 -266 -174 -16 -14 -28 -32 -28 -39 0
-24 34 -13 89 30 31 24 97 68 147 97 55 31 98 64 108 81 20 34 16 35 -50 5z"/>
<path d="M6597 4942 c-35 -38 -8 -102 43 -102 36 0 60 24 60 60 0 16 -7 36
-16 44 -21 22 -67 20 -87 -2z"/>
<path d="M5668 4893 c-8 -10 -18 -24 -22 -30 -7 -13 10 -53 28 -65 34 -23 96
10 96 52 0 48 -71 78 -102 43z"/>
<path d="M2525 4714 c-178 -94 -309 -213 -368 -335 -20 -41 -40 -87 -43 -104
l-7 -30 49 44 c58 51 99 73 176 96 52 15 67 27 182 146 123 127 149 166 129
198 -17 27 -47 23 -118 -15z"/>
<path d="M2838 4696 c-183 -75 -352 -222 -426 -371 -53 -106 -92 -265 -78
-320 6 -25 9 -26 64 -23 50 3 57 6 60 25 2 13 -7 37 -19 55 -49 68 -12 172 99
282 69 70 200 164 266 191 103 43 161 110 138 159 -14 32 -31 32 -104 2z"/>
<path d="M4942 4687 c-28 -30 -100 -210 -118 -299 -19 -90 -11 -142 26 -180
23 -22 38 -28 72 -28 76 0 73 -10 70 262 -1 134 -2 249 -2 256 0 19 -25 14
-48 -11z"/>
<path d="M6590 4575 c-20 -25 -8 -50 25 -50 21 0 31 5 33 18 4 21 -14 47 -33
47 -7 0 -18 -7 -25 -15z"/>
<path d="M2271 4307 c-113 -90 -182 -230 -185 -379 -2 -110 8 -114 86 -36 34
35 76 88 92 117 28 51 86 261 86 309 0 32 -29 28 -79 -11z"/>
<path d="M7372 4218 c-11 -11 -17 -58 -8 -58 2 0 11 -3 19 -6 14 -5 47 20 47
36 0 10 -29 40 -39 40 -4 0 -12 -5 -19 -12z"/>
<path d="M6844 4143 c-5 -19 -2 -30 11 -40 11 -7 22 -13 25 -13 3 0 14 6 25
13 13 10 16 21 11 40 -5 22 -12 27 -36 27 -24 0 -31 -5 -36 -27z"/>
<path d="M4845 4120 l-40 -20 40 5 c22 2 66 7 98 11 31 4 57 11 57 15 0 18
-114 9 -155 -11z"/>
<path d="M7775 4077 c-26 -20 -16 -61 16 -65 29 -3 54 20 46 42 -10 25 -42 37
-62 23z"/>
<path d="M4874 4050 c-466 -84 -816 -477 -841 -946 -32 -619 485 -1118 1103
-1062 413 37 763 325 879 723 69 240 51 487 -54 711 -54 116 -112 197 -205
289 -134 133 -281 218 -464 267 -87 23 -330 33 -418 18z"/>
<path d="M1973 3958 c-52 -25 -90 -162 -100 -359 -7 -150 -2 -179 31 -179 33
0 51 32 86 153 17 58 42 125 56 151 22 40 25 53 19 103 -11 111 -14 119 -41
131 -14 7 -26 12 -27 11 -1 0 -12 -5 -24 -11z"/>
<path d="M6766 3904 c-31 -30 -13 -67 30 -62 35 4 47 44 18 65 -23 17 -29 16
-48 -3z"/>
<path d="M3670 3730 c-169 -24 -319 -166 -424 -404 -61 -138 -80 -242 -49
-267 14 -12 43 -68 43 -84 0 -16 -19 0 -32 29 -24 50 -90 58 -267 32 -53 -8
-117 -18 -143 -21 -54 -7 -55 -8 -94 -120 l-27 -78 21 -18 c23 -18 29 -39 13
-39 -6 0 -13 5 -16 10 -23 38 -65 -27 -65 -101 0 -99 76 -164 275 -234 186
-65 261 -102 339 -167 78 -66 125 -83 208 -75 67 6 143 44 322 161 145 94 147
101 51 205 -83 90 -114 154 -169 343 -69 237 -65 228 -123 272 -38 28 -53 46
-53 62 0 34 10 29 53 -27 39 -51 69 -63 85 -31 5 9 12 52 14 95 5 74 18 110
35 93 5 -4 7 -86 6 -182 l-3 -175 39 -102 c74 -197 110 -254 194 -308 67 -43
100 -48 136 -18 l24 20 -26 77 c-33 95 -57 196 -57 241 0 22 -14 58 -39 100
-71 118 -91 236 -67 379 9 51 16 116 16 145 -1 58 -23 164 -39 180 -14 14
-103 17 -181 7z"/>
<path d="M6868 3699 c-26 -15 -23 -58 5 -68 12 -5 30 -5 40 1 23 12 22 55 -2
68 -23 12 -22 12 -43 -1z"/>
<path d="M8196 3509 c-33 -26 -36 -79 -6 -109 30 -30 83 -27 109 6 34 43 26
86 -20 109 -37 20 -51 19 -83 -6z"/>
<path d="M1908 3324 c-123 -132 -152 -188 -146 -287 4 -78 19 -97 75 -97 38 0
98 23 125 47 10 9 29 52 42 97 14 44 32 91 41 103 8 12 49 43 91 69 73 45 75
48 72 83 -3 35 -4 36 -42 34 -53 -4 -109 12 -131 37 -10 11 -21 20 -24 19 -3
-1 -49 -48 -103 -105z"/>
<path d="M1743 3346 c-54 -60 -94 -126 -115 -184 -29 -80 -35 -213 -14 -285
15 -52 19 -56 36 -47 37 20 47 60 52 195 5 142 16 183 78 269 53 73 20 118
-37 52z"/>
<path d="M7882 3344 c-42 -29 -18 -104 35 -104 49 0 72 76 31 104 -12 9 -27
16 -33 16 -6 0 -21 -7 -33 -16z"/>
<path d="M6686 3254 c-9 -8 -16 -22 -16 -29 0 -17 27 -45 44 -45 15 0 46 32
46 47 0 13 -33 43 -48 43 -6 0 -18 -7 -26 -16z"/>
<path d="M8111 3074 c-24 -31 -24 -34 -11 -68 29 -78 148 -38 131 44 -10 54
-85 68 -120 24z"/>
<path d="M1875 2859 c-149 -83 -221 -169 -244 -293 -11 -61 -1 -137 22 -165
16 -19 66 -39 86 -34 34 9 45 45 46 148 0 126 15 158 125 277 75 81 97 119 68
117 -7 0 -53 -23 -103 -50z"/>
<path d="M1971 2770 c-151 -152 -153 -310 -5 -453 55 -53 67 -83 38 -94 -12
-4 -34 13 -76 60 -62 69 -101 86 -112 50 -15 -49 -26 -159 -26 -253 0 -157 30
-261 107 -378 46 -69 167 -198 203 -217 43 -22 255 -48 350 -42 101 5 144 24
167 72 13 28 14 39 5 60 -16 34 -37 41 -192 60 -142 17 -175 27 -243 73 -23
17 -59 37 -80 45 -26 11 -37 22 -37 36 0 28 8 27 87 -14 67 -35 129 -53 140
-42 3 4 -24 39 -61 79 -65 71 -111 147 -104 169 2 6 23 -18 47 -53 51 -74 163
-170 241 -207 79 -36 270 -41 496 -12 239 31 363 75 407 146 63 101 127 217
127 229 0 9 -17 20 -41 27 -40 12 -117 8 -333 -18 -38 -5 -48 -3 -44 8 4 12
41 25 171 59 26 7 47 15 46 19 -1 10 -90 72 -139 97 -25 12 -90 39 -145 59
-161 58 -255 124 -339 238 -26 37 -52 65 -56 62 -16 -10 -68 -131 -79 -183
-34 -161 14 -336 111 -400 81 -55 104 -79 92 -99 -22 -36 -44 -26 -139 67
-117 115 -148 176 -148 287 0 40 -2 73 -6 74 -3 1 -21 2 -39 4 -39 3 -96 45
-117 85 -30 59 -13 65 55 20 52 -35 74 -37 116 -11 49 30 122 156 102 177 -2
2 -53 8 -114 13 -170 16 -269 53 -333 127 -17 19 -32 34 -35 34 -2 0 -31 -27
-65 -60z"/>
<path d="M8340 2613 c-56 -20 -68 -87 -23 -123 45 -35 113 -2 113 55 0 42 -52
82 -90 68z"/>
<path d="M4050 2414 c-41 -36 -132 -103 -202 -149 -149 -100 -253 -200 -331
-317 -112 -168 -151 -292 -152 -483 0 -116 3 -136 24 -182 27 -60 79 -111 148
-147 114 -57 190 -55 239 9 31 41 43 42 109 11 61 -29 81 -47 178 -159 93
-107 121 -131 184 -159 57 -26 178 -34 339 -23 l105 7 -40 35 c-23 19 -41 38
-41 42 0 5 26 2 58 -5 80 -19 206 -18 248 2 35 17 74 81 74 122 0 73 -55 107
-193 122 -52 5 -103 13 -113 16 -71 26 -73 82 -4 182 79 116 65 152 -58 152
-40 0 -72 4 -72 9 0 5 28 12 63 16 70 8 114 24 141 50 17 18 17 19 -4 35 -18
14 -21 23 -15 48 3 18 13 32 20 32 8 0 43 -15 77 -34 81 -44 148 -63 159 -44
5 7 9 95 9 196 l0 182 -36 0 c-60 0 -230 39 -312 71 -42 17 -108 48 -145 71
-38 22 -70 38 -72 36 -1 -1 -11 -41 -20 -88 -9 -47 -26 -111 -37 -144 -23 -71
-82 -166 -103 -166 -22 0 -19 10 27 99 49 95 61 176 34 229 -52 101 -160 52
-325 -147 -147 -178 -179 -230 -195 -313 -18 -96 48 -194 160 -239 53 -21 75
-24 209 -24 148 0 175 -5 175 -28 0 -7 5 -28 10 -49 13 -45 45 -58 140 -58 54
0 70 -4 85 -20 32 -35 0 -150 -41 -150 -12 0 -15 6 -10 22 4 13 10 42 13 64 5
38 3 43 -18 50 -13 4 -47 7 -75 5 -33 -2 -63 3 -83 13 -31 16 -61 61 -61 91 0
18 -10 18 -101 4 -85 -13 -198 0 -283 31 -120 45 -183 123 -193 239 -5 57 -7
61 -27 54 -12 -4 -48 -8 -81 -8 -53 0 -60 2 -60 19 0 15 15 25 65 43 51 18 79
37 128 86 35 34 78 82 95 107 68 99 205 225 362 335 39 26 72 50 74 51 2 2
-20 29 -48 61 -29 32 -66 79 -84 105 -18 26 -34 47 -37 47 -3 0 -39 -30 -80
-65z"/>
<path d="M7889 2402 c-47 -39 -16 -122 46 -122 13 0 33 8 46 18 47 39 16 122
-46 122 -13 0 -33 -8 -46 -18z"/>
<path d="M7566 2344 c-31 -30 -9 -84 34 -84 17 0 50 34 50 52 0 13 -39 48 -54
48 -8 0 -22 -7 -30 -16z"/>
<path d="M5625 2149 c-16 -11 -59 -35 -95 -54 -36 -18 -83 -52 -105 -74 l-39
-41 45 0 c43 0 48 3 139 95 52 52 92 95 90 94 -3 0 -18 -9 -35 -20z"/>
<path d="M5321 2014 c-66 -21 -74 -34 -20 -34 36 0 51 5 69 25 27 29 18 30
-49 9z"/>
<path d="M5110 1542 c0 -242 -3 -480 -6 -530 l-7 -92 27 0 26 0 0 530 c0 523
0 530 -20 530 -20 0 -20 -7 -20 -438z"/>
<path d="M7482 1804 c-32 -22 -26 -65 10 -78 22 -8 32 -6 48 9 25 23 25 40 0
65 -24 24 -29 24 -58 4z"/>
<path d="M5230 1785 l0 -25 458 0 457 0 220 -220 220 -220 98 0 c97 0 99 0
124 30 20 24 33 30 64 30 86 0 123 -100 58 -154 -17 -14 -39 -26 -49 -26 -30
0 -68 21 -85 47 -15 22 -21 23 -128 23 l-112 0 -220 220 -220 220 -442 0 -443
0 0 -110 0 -110 303 0 302 0 230 -230 230 -230 229 0 230 0 26 32 c56 67 160
29 160 -58 0 -81 -103 -116 -160 -54 l-28 30 -239 0 -238 0 -230 230 -230 230
-292 0 -293 0 0 -55 0 -55 237 0 238 0 305 -305 306 -305 299 0 300 0 128 130
c124 126 127 130 127 174 0 41 -3 46 -37 63 -21 10 -48 34 -61 53 -20 29 -23
45 -20 92 3 38 11 64 23 78 19 21 18 22 -105 145 l-125 125 -175 0 -175 0
-115 115 -115 115 -517 0 -518 0 0 -25z"/>
<path d="M3055 1644 c-11 -1 -83 -8 -160 -14 -180 -15 -204 -30 -225 -138 -13
-72 -7 -82 49 -82 68 0 276 27 346 45 76 20 102 39 143 105 51 85 47 90 -50
89 -46 -1 -92 -3 -103 -5z"/>
<path d="M4869 1515 c-45 -23 -124 -118 -164 -195 -23 -45 -16 -92 17 -108 34
-16 171 -34 226 -30 l43 3 0 165 c0 145 -2 166 -17 177 -25 19 -53 15 -105
-12z"/>
<path d="M6836 1319 c-30 -43 20 -93 63 -63 23 17 28 53 9 72 -19 19 -55 14
-72 -9z"/>
<path d="M7173 1290 c-46 -19 -57 -83 -20 -118 48 -45 117 -14 117 51 0 51
-50 86 -97 67z"/>
<path d="M6820 1040 c-11 -11 -20 -26 -20 -34 0 -20 28 -46 50 -46 21 0 50 25
50 44 0 17 -22 42 -43 49 -11 4 -25 -1 -37 -13z"/>
<path d="M5959 661 c-17 -13 -23 -29 -23 -56 0 -46 31 -75 79 -75 38 0 75 37
75 75 0 12 -9 34 -21 49 -25 32 -75 35 -110 7z"/>
<path d="M7156 4571 c-26 -29 -18 -82 17 -101 24 -13 30 -13 55 0 55 31 34
120 -28 120 -15 0 -35 -9 -44 -19z"/>
<path d="M6162 4501 c-8 -4 -12 -19 -10 -32 4 -33 53 -40 63 -9 11 36 -22 61
-53 41z"/>
<path d="M8216 2341 c-44 -48 22 -108 67 -62 20 20 21 23 7 49 -19 34 -50 39
-74 13z"/>
<path d="M7313 1544 c-8 -22 10 -49 32 -49 10 0 22 7 28 16 15 24 1 49 -28 49
-15 0 -28 -7 -32 -16z"/>
</g>
</svg>
