<svg version="1.0" xmlns="http://www.w3.org/2000/svg" width="1333.333" height="833.333" viewBox="0 0 1000 625"><path d="M0 312.5V625h1000V0H0v312.5zM508.8 52.3c1.5 1.6 1.7 5.1 2 33.4l.4 31.6 12.4-12.4L536 92.5v-4.9c0-4.4-.4-5.2-3.7-8.1-3.4-2.9-3.8-3.8-3.8-8 0-4 .5-5.1 3.3-7.6 5.7-5.1 13.8-3.4 16.8 3.6 1.9 4.7.2 10.1-4 12.6-3.1 1.8-3.3 2.2-3.5 8.2l-.2 6.2-14.9 15-14.8 15-.4 44.2c-.2 24.4 0 44.3.4 44.3.6 0 15.1 2 17.2 2.3.6.1.9-17.7.7-46.3l-.3-46.5 21.6-21.8L572 79h45.4l6.8 6.7c6.7 6.6 6.9 6.8 12.1 6.8 6.4 0 10 2.4 12.3 8.2 2 5.1.7 10-3.6 13.7-6.2 5.2-14 3.7-18.8-3.4-1.9-2.9-2.2-4.3-1.7-7.9.6-4.3.5-4.5-4.6-9.7l-5.3-5.4h-39.1l-18.8 18.8-18.7 18.7.2 46.5.3 46.4 4.8 1.8 4.7 1.8v-62.6l6-5.9 6-5.9-.6-5.2c-.5-4-.2-5.9 1.2-8.3 5.1-8.7 18.6-7.1 21.3 2.5 2.8 10-8.1 18.9-16.9 13.9-2.4-1.3-2.7-1.1-8.2 4.3l-5.8 5.6v63.3l2.5 1.1c1.4.7 2.8 1.2 3 1.2.3 0 .5-6.6.5-14.7v-14.8l20-20 19.9-20 .2-12.8c.1-7.1 0-13-.2-13.1-.2-.2-1.8-1.1-3.5-1.9-3.1-1.6-6.4-6.9-6.4-10.1 0-3.5 3-8.5 5.9-10 3.9-2 10-2 12.9 0 2.9 2 5.2 6.5 5.2 10.1 0 4-3.2 8.7-6.9 10.3l-3.1 1.2V156.5L580.5 177l-20.4 20.5V213l-.1 15.5 5 3.3 5 3.2v-36.5l33.7-33.7 33.8-33.8h5.7c5.4 0 5.7-.2 7.9-3.6 2.9-4.8 7.4-7.4 12.7-7.4 14.1 0 20.8 15.9 10.8 25.8-3 3.1-4.2 3.6-9.3 3.9-6.9.5-11.2-1.7-14.4-7.2-1.8-3-2.6-3.5-5.7-3.5-3.5 0-5.4 1.7-34.9 31.2-28.3 28.2-31.3 31.6-31.3 34.5v3.3h49.4c47.8 0 49.5-.1 50.1-1.9.3-1.1 1.6-2.6 2.8-3.3 10.7-6.9 22.3 4.1 15.7 14.9-3.9 6.4-15.2 6.3-18.2-.1l-1.1-2.6H579v5h84.6l5.4 5.5c4.3 4.4 5.8 5.3 7.7 4.9 4-1 7.3.4 8.7 3.8 1.7 4 .4 8.1-3 9.7-3.5 1.6-4.7 1.4-7.9-1-2.2-1.8-2.6-2.8-2.3-6 .3-3.6-.1-4.4-4.7-8.9l-5-4.9-41.8-.3-41.7-.3v5.5h48.5l14.5 14.5 14.5 14.5h12.7c7.5 0 12.8-.4 12.8-1 0-.5 1-1.8 2.2-3 4.7-4.3 11.8-1.1 11.8 5.2 0 3.9-.7 5.1-3.7 6.7-3.4 1.7-5.2 1.3-8.5-1.9l-3-3H655.5L641 245.5 626.5 231H579v6h48.7l23.2 22.8 23.1 22.8v4.3c0 3.8.5 4.8 3.8 7.6 3.3 2.9 3.7 3.8 3.7 8 0 4-.5 5.1-3.3 7.6-4.6 4.2-9.3 4-13.8-.5-5-5-4.8-9.6.6-14.7 6.9-6.5 6.9-6.5-17.7-31.1L625.5 242h-23.2c-12.8 0-23.3.4-23.3.8s1.8 2.6 4 4.7c14.3 14 26 40 27.7 61.5l.6 8H710v-59.4l13.4-13.6 13.3-13.5.1-8.3c0-6.7-.3-8.4-1.7-9.5-2.1-1.5-4.1-5-4.1-7.2 0-2.7 5.5-7.5 8.7-7.5 2.2 0 4.6-1.8 11.3-8.5l8.5-8.5-20-20-20-20h-26l-12.2 12.2c-10.6 10.6-12.3 12.7-12.3 15.5 0 4.5-.9 6.2-4.1 7.9-4.7 2.4-10.4-.2-10.9-5.1-.7-6.2 2-9.5 7.8-9.5 3.5 0 4.7-.9 16.7-13l13-13h30l22.5 22.5 22.5 22.5-10.1 10.2c-9.8 9.9-10.1 10.4-9.7 14 .4 3 0 4.2-2.1 6.3-2.4 2.4-2.6 3.2-2.6 12.3v9.7l-13 13-13 13v55.8l2.5-2.3 2.5-2.3v-51.2l20.7-20.7c17.7-17.7 21.2-20.8 23.8-20.8 2.3-.1 3.5-.9 5-3.3 1.3-2 3.5-3.7 6.1-4.6 3.6-1.3 4.4-1.2 7.8.4 7 3.4 8.5 12.4 2.8 17.7-1.5 1.4-3.9 2.8-5.4 3.2-3.9.9-9.5-1.7-11.6-5.4-1-1.8-2.5-3-3.7-3-1.3 0-8.9 6.8-21.3 19.3L726 261.6v51.3l-4.3 4.5-4.3 4.6-52.9.2-53 .3-.6 7.5c-.4 4.1-.9 9-1.3 10.7l-.8 3.3H706.5l42.9-42.9 42.9-42.9 6.3.2c6.3.1 6.4.1 12.2 5.9 5.4 5.4 6 5.7 8.6 4.7 9-3.4 17.5 3 16.3 12.2-1 7.2-7.6 11.7-14.6 9.8-6.8-1.8-10-8.1-7.9-15.2 1.1-3.9 1.1-3.9-3.7-8.8-4.8-4.9-5.1-5-10.8-5h-5.9l-42.5 42.5-42.4 42.5h-99.8l-.6 2.2c-1.9 6.5-1.9 6.3-.4 5.2 1-.8 16.4-1.2 52.4-1.3l51-.2 14-13.9 14-14h21l11.7-11.7 11.7-11.6-.6-4.7c-.7-5.8 1.4-9.4 6.2-11 8-2.7 15.5 6.5 11.5 14.1-1.7 3.1-6.7 5.1-10.8 4.4-3.6-.6-3.9-.4-15.7 11.5l-12 12h-21L726 342.5 711.5 357H608.4l-2.7 2.8c-1.5 1.6-4.1 5.5-5.8 8.8-1.7 3.2-4 7.5-5.1 9.4-1.5 2.5.7.8 7.3-5.8l9.4-9.2h102l14-14 14-14h23.1l7.4-7.5 7.4-7.5h12.3c11.1 0 12.2-.2 12.8-1.9 1.2-3.8 4.7-7.1 8.6-8.1 5.5-1.5 11.9 1.3 14.2 6.3 2.1 4.3 2.1 5.8.3 10.2-4.2 10-18.4 9.6-22.6-.6l-1.2-2.9h-22.4l-7.4 7.5-7.4 7.5h-23.1l-14 14-14 14H612.6l-30.3 30.2-30.4 30.3 4.2.3 4.2.3 27.7-27.5 27.6-27.6h102.9l11.5-11.5 11.5-11.5h72.9l6.2 6.1 6.3 6.2 3.4-1.7c4.3-2 5.8-2 10.2-.2 4 1.7 7.5 6.8 7.5 11.1 0 4.2-3.3 9.2-7.4 11.1-9 4.3-20-5.2-16.5-14.3.9-2.5.5-3.1-5.2-8.9l-6.2-6.3-35-.1h-35l-12.1 12-12.2 12H616.5L591 401.5 565.5 427h4c3.9 0 4.7-.7 26.5-22.5l22.5-22.5h102.9l6.6-6.5 6.5-6.5h20.4l20.4-.1 5.1 5 5.1 5 6.2-.6c6.1-.6 6.3-.5 9.7 2.9 5.9 5.9 6 11.6.1 17.5-2.8 2.8-4 3.3-7.9 3.3-9 0-15.1-9.3-11.2-17.1l1.6-3.3-4.7-4.8-4.7-4.8h-38.2l-6.4 6.5-6.4 6.5H620.5l-21 21c-20.7 20.7-20.9 21-17.5 21 3.2 0 4.7-1.1 14-10.5l10.5-10.5h42.1l4.9 5 4.9 5h78.1l7.8-7.8c7.3-7.4 7.6-7.8 7.1-11.4-.9-5.3.2-8.6 3.6-10.3 6.3-3.3 12.6-.2 13.7 6.7.5 3.2.1 4.1-2.6 6.9-2.8 2.8-3.7 3.1-7.6 2.7-4.3-.5-4.3-.5-13.1 8.3l-8.9 8.9h-73.9l5.4 5.5 5.4 5.5H698.7l8.2 8 8.2 8h13.4c11 0 13.5-.3 13.5-1.4 0-.8 1.4-2.6 3.2-4.1 5.6-4.7 13.2-1.8 14.4 5.6 1.4 8.2-9.2 13.3-15.1 7.4-1.4-1.3-2.5-2.9-2.5-3.5 0-.6-5-1-14.3-1h-14.2l-8-8-8-8h-26L659 421.5 646.5 409h-38l-11 11-11 11-31.7-.4-31.8-.5v8.9h106.5l11.5 11.5 11.5 11.5h34.2l12.8 12.9 12.9 13 6.1-.2c10.3-.3 16.5 5.3 16.5 15 0 6.2-2.9 11-8.3 13.6-3.7 1.9-3.7 1.9-3.7 8v6.2l-14.2 14.2-14.3 14.3h-66l-30-30-30-30H523v34h52.5l8.7 8.7 8.7 8.7 7.5.1c6.5 0 7.8.3 10.1 2.5 10.5 9.8 4.7 26-9.3 26-10.2 0-17-8.9-14.3-18.7l1.1-3.8-7.7-7.7-7.8-7.8h-33c-31 0-33.4.1-37.2 2-2.3 1.1-6.3 2.5-9 3.1-2.6.7-7 2-9.8 3-14.4 5.2-30.7 7.3-46 5.9-22.1-2.1-36.4-8.8-51.1-23.7-7-7.1-7.3-7.2-10.3-6.2-5.5 1.9-17.8.7-24.6-2.4-17.2-8-26.5-21.7-26.5-39v-6l-4.6 4.3c-9.9 9.1-22.3 12.3-48.4 12.3-23.6 0-58.7-4.1-66.5-7.9-10.5-5-28-28.9-34-46.5-3.7-10.8-4.6-26.9-2-33.9.9-2.5 1.9-5.2 2.1-6 .4-1.1-.5-1.9-2.8-2.8-4.8-1.7-10.7-7.9-13.7-14.2-2.1-4.5-2.5-7-2.5-13.6 0-7 .4-8.7 2.8-12.8l2.8-4.8-2.5-5.6c-3.7-8.1-4.9-17.4-3.7-26.3 1.7-11.8 6-19.5 17.9-32.1l6.6-7-.4-10.2c-.4-12.7 1.4-20.6 7.4-33.2 5.1-10.5 10.8-17 15.9-17.9 4.3-.9 5-2.6 2.7-6.7-2.8-4.9-3.4-9.1-2.1-15.5 2.5-12.3 11.5-27.2 22.3-36.9 11.5-10.4 28-19.4 35.4-19.4 3.8 0 4.4-.3 5.8-3.3 4.8-10.3 20.5-24.2 36.5-32.6 19.8-10.3 38.9-14.8 58.6-13.8l11.3.6 2.9-5.2c4-7 10-12.3 18.6-16.2 8.6-3.9 15.4-5.5 39.9-9.6 14.9-2.4 19.7-2.9 22.7-2.1 3.1.8 4.3.6 6.5-.8 9.9-6.5 43.5-10.4 48.3-5.7zm219 111.7c3.8 3.8 4.7 7.8 2.9 12.1-2.4 5.7-5.1 7.4-11.8 7.4h-5.8l-6.8 6.7-6.9 6.8h-46.9l-8.5-8.5c-8.2-8.3-8.6-8.5-13.2-8.5-3.6 0-5 .4-5.7 1.9-2.6 4.9-10.4 4.7-13.7-.3-4.9-7.5 5.8-15.5 12.2-9.1 2.1 2.1 3.4 2.5 8.5 2.5h6l8.6 8.5 8.6 8.5h42.3l6.3-6.4 6.3-6.3-1.2-4c-2.3-7.7 3-14.2 11.7-14.3 3.3 0 4.7.6 7.1 3zm103.3 223.9c4 4 3.9 8.2-.1 12.3-2.7 2.6-3.6 3-6.9 2.5-3.7-.5-4.2-.2-10.5 6.2l-6.6 6.7v15.9l-21.7 21.7-21.8 21.8h-10.2c-8.9 0-10.4.2-11.5 1.9-4.8 6.9-15.8 3.7-15.8-4.5 0-8.4 9.5-11.9 15.1-5.6 2.8 3.1 3 3.2 11.6 3.2h8.8l20.2-20.2 20.3-20.3v-16l7.2-7.2c6.9-6.9 7.2-7.5 7-11.5-.4-8.9 8.7-13.1 14.9-6.9z"/><path d="M488.5 61.6c-20.8 4.3-25.5 6.3-25.5 10.9 0 4.6 2.1 5 14.8 3.1 16.5-2.5 16.2-2.4 19.3-5.6 1.9-1.9 2.9-3.9 2.9-5.9 0-3-.1-3.1-4.7-3-2.7.1-5.7.3-6.8.5zM535.7 67.8c-3.6 3.9-1.2 8.6 4 8 2-.2 3-1.1 3.8-3.2.8-2.4.6-3.1-1.4-4.7-2.9-2.4-4.3-2.4-6.4-.1zM427 73c-11.8 2-24.1 4.7-27.3 6-6.2 2.4-12.9 7-15.9 11.1-1.7 2.3-4.9 10.1-4.4 10.6.3.4 26.2-10.1 34-13.6 8.6-4 14.3-4.7 25.6-3.1 7.2 1 9.5 1 12 0 2.2-.9 2.9-1.7 2.4-2.9-1.6-3.9-2.5-8.5-2.1-10.2.6-2.4 1.9-2.5-24.3 2.1zM476.6 82.1c-11.8 3.1-15.9 5.5-20.6 12.1-3 4.1-5.6 10.5-4.7 11.5.3.3 2.1 0 3.9-.6 1.8-.6 5.6-1.2 8.3-1.3 4.4-.3 5-.1 5 1.7 0 1.5-1.1 2.2-5.2 3.1-2.9.7-6.9 2.5-9 4.2-9.1 7.2-20.9 22.1-23.7 30-.8 2-3.4 7.7-5.9 12.7-7.7 15.6-12.7 31.9-12.7 42.1v4.4l3.8-1.9c2-1.1 6.2-4.5 9.2-7.5 3.2-3.3 6.3-5.6 7.6-5.6 2.2 0 5.4 2.8 5.4 4.8 0 1.3-5.6 6.1-17 14.5-8.5 6.2-8.5 6.3-14.8 18.7-3.4 6.8-7.4 16-8.8 20.4-2.4 7.5-2.5 8.9-1.9 20.2.5 9.6.3 13.9-1 20.5-1.1 5.5-1.5 10.5-1.1 14.4.6 6.4 2.4 14 3.2 13.2.3-.2 1.1-4.6 1.9-9.8 3.1-21 11.3-38.2 26.6-56l6-6.9-2.6-4.9c-2.3-4.6-3.2-8.1-2-8.1 2.2 0 5.8 3 7.2 6.1l1.6 3.7 5.1-3.8c2.8-2.1 8.1-5.4 11.7-7.4 5.9-3.3 6.9-4.2 8.9-8.9 1.2-2.9 4.6-9.3 7.5-14.2 5.7-9.8 7.1-13.3 10.9-27.3 2.9-10.4 6.8-18.7 12-25.5 6.8-8.9 8.5-19.5 8.2-50.5-.1-15.8-.4-19.5-1.6-20.2-2.6-1.7-10.2-.9-21.4 2.1z"/><path d="M448.1 90.1c-1.2.5-7.3.8-13.5.7-12.7-.3-16.9.8-28 7.2-7.6 4.4-8.6 4.7-8.6 2.4 0-2.7-3.9-1-25.1 10.8-19.3 10.8-29.3 17.1-29.7 18.8-.2 1.3 1.9 1.5 12.5 1.7 14.9.2 17.6-.3 34.3-6.3 16.8-6.2 25.4-6.9 33.5-2.9l5.6 2.7 5.4-3.3 5.5-3.3v-5.4c0-4.3-.5-5.8-2.5-7.7-1.3-1.4-3.1-2.5-4-2.5-3.1 0-.9-2.5 2.5-2.8 2.2-.2 4.3.4 6.1 1.7 3.2 2.4 2.8 2.8 7.3-7.2 2.6-6 2.6-6.2-1.3-4.6zM360.9 96.4c-.2.2-8.9 2.8-19.4 5.6-31.9 8.7-45.1 15.7-62.8 32.9-8.8 8.6-10.7 11-10.5 13 .2 1.7 1.2 2.9 2.8 3.4 4.1 1.5 20.8-5.6 27.8-11.7 11.7-10.2 20.7-14.5 48.9-23.6 20.4-6.6 22.3-7.7 22.3-12.8 0-4.5-2.3-7.2-6.2-7.2-1.3 0-2.7.2-2.9.4zM632.7 100.8c-1 1-1.7 2.8-1.7 4 0 2.8 3.4 6.2 6 6.2 2.5 0 6-3.4 6-5.8 0-5.3-6.8-8.2-10.3-4.4zM595 114c-2.8 2.8-2.5 6.4.7 8.9 4.3 3.4 9.3.7 9.3-5 0-3-3.1-5.9-6.2-5.9-1 0-2.7.9-3.8 2z"/><path d="M394.5 127.5c-4.4 1.2-9.8 3-12 3.9-2.2.9-5.1 1.6-6.5 1.4-1.9-.2-2.4.1-2.2 1.4.2 1-.1 1.8-.5 1.8-23.9.8-38.6 3.1-46.7 7.2-6 3-23.3 15.6-24 17.5-.8 1.9 1 4.3 3.3 4.4.9 0-1.2 1-4.6 2.3-13.4 5-29.8 16.1-42.4 28.6-8.1 8.1-10.9 12.8-10.9 18.3 0 6.8 7.6 12.5 12.4 9.4 1.2-.8 4.4-5.6 7.1-10.7 5.4-10.2 10.4-15.3 17.4-17.9 3.4-1.2 4.7-2.3 5.4-4.6 2.3-7.1 8.4-12.4 22.5-19.4 8.9-4.5 20.3-7.8 30.1-8.7 3.6-.3 10-1.9 14.1-3.4 7.8-2.9 22.9-6.5 23.8-5.6.2.3-1.8 2.6-4.7 5.2-2.8 2.5-5.1 4.9-5.1 5.2 0 .4 2.7 1.5 6 2.5 3.3.9 6 2.2 6 2.7 0 1.3-.4 1.3-9.6-.6-9.9-2.1-25.6-1.4-36.6 1.5-17.9 4.7-36.8 15.2-39.4 22-2.4 6-2.7 6.2-11.8 10.2-9.9 4.2-12 5.8-14.7 11.1-4.8 9.4-3.2 15.8 4.3 17.9 2.4.6 6 2 8.1 3.1 2.3 1.2 7.6 2.4 13.7 3 12 1.3 13.1.8 15.8-8.6 1.3-4.2 2.4-6.2 3.6-6.4 1.8-.4 1.8.4 1.4 11.9-.5 10.3-1.1 13.9-3.6 21.2-4.7 13.8-12.4 23.7-18.4 23.7-2.6 0-2.3-1 2.4-7.6 9.1-13.1 10.8-19 6.6-23.8-1.6-1.8-6.4-3.9-15.8-7.1-21.1-7.2-24.3-7.8-37.5-7.9-11.8-.1-12.1 0-19.7 3.6-15 7.1-23.8 19-26.3 35.5-.6 3.9-.4 4.6 2.3 7.3 2.6 2.5 3.8 3 7.9 3 8.6-.1 19.1-6.7 21.3-13.5.9-2.8.8-4.6-.4-8.9-1.8-6-2.1-14.3-.6-16.6.7-1.2 1-1.1 1.6.5.3 1.1 2.6 6.3 4.9 11.5 2.4 5.2 5 11.1 5.8 13 1.2 3 2.2 3.8 6.8 5.3 7.1 2.2 9.8 4.1 8.2 5.8-1 1-1.8 1-3.8.1-3.6-1.6-12.1-1.5-18.1.3-5.5 1.6-12.6 7.1-14.9 11.6-1.9 3.5-1.9 9.6 0 12.9.8 1.4 1.4 5 1.4 8v5.5l-1.9-4c-4-8.1-10-10.6-15.4-6.4-4 3.1-5.9 7.7-5.9 13.9 0 11.4 8.8 23.8 22.2 30.9 10.7 5.7 23.2 4.7 31.1-2.5 4.4-4 7.6-10.8 8.6-18.4.8-6.6 2.6-10.4 5.8-12.6 3.3-2.1 19.8-4.3 32.4-4.4 12 0 10.6 1.5 15.2-16.5 6.9-27.1 21.3-45.5 39.9-51.1 3.7-1.1 6.1-2.3 6.1-3.2 0-2.6-7-14.7-11.5-19.9-2.5-2.8-6.2-6.2-8.1-7.4-4.7-2.9-13.3-4.9-18.4-4.2-3.2.5-4.1.2-4.6-1.2-1.4-3.4 2.2-4.7 11-4l7.9.7-.7-7.8c-.7-8.3.1-11.1 2.8-10.1 1.2.5 1.6 2 1.6 6.4 0 7.1 1.1 8.8 9.4 14.8 8 5.7 12.8 10.9 16.2 17.7 1.4 2.9 3.7 6.8 5.1 8.6 4.5 5.9 11.5 8 15.2 4.3 3.1-3.1 8.6-22 12.1-41.6 4.4-24.4 6.9-32.7 14.5-48 3.6-7.2 6.5-14.2 6.5-15.7s-1.2-4-2.6-5.7c-4.7-5.6-14.4-6.5-27.9-2.6zM328.4 129.4c-5.8 2.7-22.5 13.6-26.6 17.4-1.6 1.4-2.8 3.2-2.8 3.9 0 2.4 3.4 1.3 8.9-3 3.1-2.4 9.7-6.8 14.7-9.7 5.5-3.1 9.8-6.4 10.8-8.1 2-3.4 1.6-3.5-5-.5zM659.7 130.8c-3.5 3.8-.8 10.2 4.3 10.2 3.6 0 6-2.4 6-6 0-1.6-.7-3.6-1.6-4.4-2.1-2.2-6.7-2-8.7.2zM566.8 135.7c-.8 1-1.8 2.4-2.2 3-.7 1.3 1 5.3 2.8 6.5 3.4 2.3 9.6-1 9.6-5.2 0-4.8-7.1-7.8-10.2-4.3zM252.5 153.6c-17.8 9.4-30.9 21.3-36.8 33.5-2 4.1-4 8.7-4.3 10.4l-.7 3 4.9-4.4c5.8-5.1 9.9-7.3 17.6-9.6 5.2-1.5 6.7-2.7 18.2-14.6 12.3-12.7 14.9-16.6 12.9-19.8-1.7-2.7-4.7-2.3-11.8 1.5z"/><path d="M283.8 155.4c-18.3 7.5-35.2 22.2-42.6 37.1-5.3 10.6-9.2 26.5-7.8 32 .6 2.5.9 2.6 6.4 2.3 5-.3 5.7-.6 6-2.5.2-1.3-.7-3.7-1.9-5.5-4.9-6.8-1.2-17.2 9.9-28.2 6.9-7 20-16.4 26.6-19.1 10.3-4.3 16.1-11 13.8-15.9-1.4-3.2-3.1-3.2-10.4-.2zM494.2 156.3c-2.8 3-10 21-11.8 29.9-1.9 9-1.1 14.2 2.6 18 2.3 2.2 3.8 2.8 7.2 2.8 7.6 0 7.3 1 7-26.2-.1-13.4-.2-24.9-.2-25.6 0-1.9-2.5-1.4-4.8 1.1zM659 167.5c-2 2.5-.8 5 2.5 5 2.1 0 3.1-.5 3.3-1.8.4-2.1-1.4-4.7-3.3-4.7-.7 0-1.8.7-2.5 1.5zM227.1 194.3c-11.3 9-18.2 23-18.5 37.9-.2 11 .8 11.4 8.6 3.6 3.4-3.5 7.6-8.8 9.2-11.7 2.8-5.1 8.6-26.1 8.6-30.9 0-3.2-2.9-2.8-7.9 1.1zM737.2 203.2c-1.1 1.1-1.7 5.8-.8 5.8.2 0 1.1.3 1.9.6 1.4.5 4.7-2 4.7-3.6 0-1-2.9-4-3.9-4-.4 0-1.2.5-1.9 1.2zM684.4 210.7c-.5 1.9-.2 3 1.1 4 1.1.7 2.2 1.3 2.5 1.3.3 0 1.4-.6 2.5-1.3 1.3-1 1.6-2.1 1.1-4-.5-2.2-1.2-2.7-3.6-2.7-2.4 0-3.1.5-3.6 2.7zM484.5 213l-4 2 4-.5c2.2-.2 6.6-.7 9.8-1.1 3.1-.4 5.7-1.1 5.7-1.5 0-1.8-11.4-.9-15.5 1.1zM777.5 217.3c-2.6 2-1.6 6.1 1.6 6.5 2.9.3 5.4-2 4.6-4.2-1-2.5-4.2-3.7-6.2-2.3zM487.4 220c-46.6 8.4-81.6 47.7-84.1 94.6-3.2 61.9 48.5 111.8 110.3 106.2 41.3-3.7 76.3-32.5 87.9-72.3 6.9-24 5.1-48.7-5.4-71.1-5.4-11.6-11.2-19.7-20.5-28.9-13.4-13.3-28.1-21.8-46.4-26.7-8.7-2.3-33-3.3-41.8-1.8zM197.3 229.2c-5.2 2.5-9 16.2-10 35.9-.7 15-.2 17.9 3.1 17.9 3.3 0 5.1-3.2 8.6-15.3 1.7-5.8 4.2-12.5 5.6-15.1 2.2-4 2.5-5.3 1.9-10.3-1.1-11.1-1.4-11.9-4.1-13.1-1.4-.7-2.6-1.2-2.7-1.1-.1 0-1.2.5-2.4 1.1zM676.6 234.6c-3.1 3-1.3 6.7 3 6.2 3.5-.4 4.7-4.4 1.8-6.5-2.3-1.7-2.9-1.6-4.8.3z"/><path d="M367 252c-16.9 2.4-31.9 16.6-42.4 40.4-6.1 13.8-8 24.2-4.9 26.7 1.4 1.2 4.3 6.8 4.3 8.4 0 1.6-1.9 0-3.2-2.9-2.4-5-9-5.8-26.7-3.2-5.3.8-11.7 1.8-14.3 2.1-5.4.7-5.5.8-9.4 12l-2.7 7.8 2.1 1.8c2.3 1.8 2.9 3.9 1.3 3.9-.6 0-1.3-.5-1.6-1-2.3-3.8-6.5 2.7-6.5 10.1 0 9.9 7.6 16.4 27.5 23.4 18.6 6.5 26.1 10.2 33.9 16.7 7.8 6.6 12.5 8.3 20.8 7.5 6.7-.6 14.3-4.4 32.2-16.1 14.5-9.4 14.7-10.1 5.1-20.5-8.3-9-11.4-15.4-16.9-34.3-6.9-23.7-6.5-22.8-12.3-27.2-3.8-2.8-5.3-4.6-5.3-6.2 0-3.4 1-2.9 5.3 2.7 3.9 5.1 6.9 6.3 8.5 3.1.5-.9 1.2-5.2 1.4-9.5.5-7.4 1.8-11 3.5-9.3.5.4.7 8.6.6 18.2l-.3 17.5 3.9 10.2c7.4 19.7 11 25.4 19.4 30.8 6.7 4.3 10 4.8 13.6 1.8l2.4-2-2.6-7.7c-3.3-9.5-5.7-19.6-5.7-24.1 0-2.2-1.4-5.8-3.9-10-7.1-11.8-9.1-23.6-6.7-37.9.9-5.1 1.6-11.6 1.6-14.5-.1-5.8-2.3-16.4-3.9-18-1.4-1.4-10.3-1.7-18.1-.7zM686.8 255.1c-2.6 1.5-2.3 5.8.5 6.8 1.2.5 3 .5 4-.1 2.3-1.2 2.2-5.5-.2-6.8-2.3-1.2-2.2-1.2-4.3.1zM819.6 274.1c-3.3 2.6-3.6 7.9-.6 10.9s8.3 2.7 10.9-.6c3.4-4.3 2.6-8.6-2-10.9-3.7-2-5.1-1.9-8.3.6zM190.8 292.6c-12.3 13.2-15.2 18.8-14.6 28.7.4 7.8 1.9 9.7 7.5 9.7 3.8 0 9.8-2.3 12.5-4.7 1-.9 2.9-5.2 4.2-9.7 1.4-4.4 3.2-9.1 4.1-10.3.8-1.2 4.9-4.3 9.1-6.9 7.3-4.5 7.5-4.8 7.2-8.3-.3-3.5-.4-3.6-4.2-3.4-5.3.4-10.9-1.2-13.1-3.7-1-1.1-2.1-2-2.4-1.9-.3.1-4.9 4.8-10.3 10.5zM174.3 290.4c-5.4 6-9.4 12.6-11.5 18.4-2.9 8-3.5 21.3-1.4 28.5 1.5 5.2 1.9 5.6 3.6 4.7 3.7-2 4.7-6 5.2-19.5.5-14.2 1.6-18.3 7.8-26.9 5.3-7.3 2-11.8-3.7-5.2zM788.2 290.6c-4.2 2.9-1.8 10.4 3.5 10.4 4.9 0 7.2-7.6 3.1-10.4-1.2-.9-2.7-1.6-3.3-1.6-.6 0-2.1.7-3.3 1.6zM668.6 299.6c-.9.8-1.6 2.2-1.6 2.9 0 1.7 2.7 4.5 4.4 4.5 1.5 0 4.6-3.2 4.6-4.7 0-1.3-3.3-4.3-4.8-4.3-.6 0-1.8.7-2.6 1.6zM811.1 317.6c-2.4 3.1-2.4 3.4-1.1 6.8 2.9 7.8 14.8 3.8 13.1-4.4-1-5.4-8.5-6.8-12-2.4zM187.5 339.1c-14.9 8.3-22.1 16.9-24.4 29.3-1.1 6.1-.1 13.7 2.2 16.5 1.6 1.9 6.6 3.9 8.6 3.4 3.4-.9 4.5-4.5 4.6-14.8 0-12.6 1.5-15.8 12.5-27.7 7.5-8.1 9.7-11.9 6.8-11.7-.7 0-5.3 2.3-10.3 5z"/><path d="M197.1 348c-15.1 15.2-15.3 31-.5 45.3 5.5 5.3 6.7 8.3 3.8 9.4-1.2.4-3.4-1.3-7.6-6-6.2-6.9-10.1-8.6-11.2-5-1.5 4.9-2.6 15.9-2.6 25.3 0 15.7 3 26.1 10.7 37.8 4.6 6.9 16.7 19.8 20.3 21.7 4.3 2.2 25.5 4.8 35 4.2 10.1-.5 14.4-2.4 16.7-7.2 1.3-2.8 1.4-3.9.5-6-1.6-3.4-3.7-4.1-19.2-6-14.2-1.7-17.5-2.7-24.3-7.3-2.3-1.7-5.9-3.7-8-4.5-2.6-1.1-3.7-2.2-3.7-3.6 0-2.8.8-2.7 8.7 1.4 6.7 3.5 12.9 5.3 14 4.2.3-.4-2.4-3.9-6.1-7.9-6.5-7.1-11.1-14.7-10.4-16.9.2-.6 2.3 1.8 4.7 5.3 5.1 7.4 16.3 17 24.1 20.7 7.9 3.6 27 4.1 49.6 1.2 23.9-3.1 36.3-7.5 40.7-14.6 6.3-10.1 12.7-21.7 12.7-22.9 0-.9-1.7-2-4.1-2.7-4-1.2-11.7-.8-33.3 1.8-3.8.5-4.8.3-4.4-.8.4-1.2 4.1-2.5 17.1-5.9 2.6-.7 4.7-1.5 4.6-1.9-.1-1-9-7.2-13.9-9.7-2.5-1.2-9-3.9-14.5-5.9-16.1-5.8-25.5-12.4-33.9-23.8-2.6-3.7-5.2-6.5-5.6-6.2-1.6 1-6.8 13.1-7.9 18.3-3.4 16.1 1.4 33.6 11.1 40 8.1 5.5 10.4 7.9 9.2 9.9-2.2 3.6-4.4 2.6-13.9-6.7-11.7-11.5-14.8-17.6-14.8-28.7 0-4-.2-7.3-.6-7.4-.3-.1-2.1-.2-3.9-.4-3.9-.3-9.6-4.5-11.7-8.5-3-5.9-1.3-6.5 5.5-2 5.2 3.5 7.4 3.7 11.6 1.1 4.9-3 12.2-15.6 10.2-17.7-.2-.2-5.3-.8-11.4-1.3-17-1.6-26.9-5.3-33.3-12.7-1.7-1.9-3.2-3.4-3.5-3.4-.2 0-3.1 2.7-6.5 6zM834 363.7c-5.6 2-6.8 8.7-2.3 12.3 4.5 3.5 11.3.2 11.3-5.5 0-4.2-5.2-8.2-9-6.8zM405 383.6c-4.1 3.6-13.2 10.3-20.2 14.9-14.9 10-25.3 20-33.1 31.7-11.2 16.8-15.1 29.2-15.2 48.3 0 11.6.3 13.6 2.4 18.2 2.7 6 7.9 11.1 14.8 14.7 11.4 5.7 19 5.5 23.9-.9 3.1-4.1 4.3-4.2 10.9-1.1 6.1 2.9 8.1 4.7 17.8 15.9 9.3 10.7 12.1 13.1 18.4 15.9 5.7 2.6 17.8 3.4 33.9 2.3l10.5-.7-4-3.5c-2.3-1.9-4.1-3.8-4.1-4.2 0-.5 2.6-.2 5.8.5 8 1.9 20.6 1.8 24.8-.2 3.5-1.7 7.4-8.1 7.4-12.2 0-7.3-5.5-10.7-19.3-12.2-5.2-.5-10.3-1.3-11.3-1.6-7.1-2.6-7.3-8.2-.4-18.2 7.9-11.6 6.5-15.2-5.8-15.2-4 0-7.2-.4-7.2-.9s2.8-1.2 6.3-1.6c7-.8 11.4-2.4 14.1-5 1.7-1.8 1.7-1.9-.4-3.5-1.8-1.4-2.1-2.3-1.5-4.8.3-1.8 1.3-3.2 2-3.2.8 0 4.3 1.5 7.7 3.4 8.1 4.4 14.8 6.3 15.9 4.4.5-.7.9-9.5.9-19.6V427h-3.6c-6 0-23-3.9-31.2-7.1-4.2-1.7-10.8-4.8-14.5-7.1-3.8-2.2-7-3.8-7.2-3.6-.1.1-1.1 4.1-2 8.8-.9 4.7-2.6 11.1-3.7 14.4-2.3 7.1-8.2 16.6-10.3 16.6-2.2 0-1.9-1 2.7-9.9 4.9-9.5 6.1-17.6 3.4-22.9-5.2-10.1-16-5.2-32.5 14.7-14.7 17.8-17.9 23-19.5 31.3-1.8 9.6 4.8 19.4 16 23.9 5.3 2.1 7.5 2.4 20.9 2.4 14.8 0 17.5.5 17.5 2.8 0 .7.5 2.8 1 4.9 1.3 4.5 4.5 5.8 14 5.8 5.4 0 7 .4 8.5 2 3.2 3.5 0 15-4.1 15-1.2 0-1.5-.6-1-2.2.4-1.3 1-4.2 1.3-6.4.5-3.8.3-4.3-1.8-5-1.3-.4-4.7-.7-7.5-.5-3.3.2-6.3-.3-8.3-1.3-3.1-1.6-6.1-6.1-6.1-9.1 0-1.8-1-1.8-10.1-.4-8.5 1.3-19.8 0-28.3-3.1-12-4.5-18.3-12.3-19.3-23.9-.5-5.7-.7-6.1-2.7-5.4-1.2.4-4.8.8-8.1.8-5.3 0-6-.2-6-1.9 0-1.5 1.5-2.5 6.5-4.3 5.1-1.8 7.9-3.7 12.8-8.6 3.5-3.4 7.8-8.2 9.5-10.7 6.8-9.9 20.5-22.5 36.2-33.5 3.9-2.6 7.2-5 7.4-5.1.2-.2-2-2.9-4.8-6.1-2.9-3.2-6.6-7.9-8.4-10.5-1.8-2.6-3.4-4.7-3.7-4.7-.3 0-3.9 3-8 6.5zM788.9 384.8c-4.7 3.9-1.6 12.2 4.6 12.2 1.3 0 3.3-.8 4.6-1.8 4.7-3.9 1.6-12.2-4.6-12.2-1.3 0-3.3.8-4.6 1.8zM756.6 390.6c-3.1 3-.9 8.4 3.4 8.4 1.7 0 5-3.4 5-5.2 0-1.3-3.9-4.8-5.4-4.8-.8 0-2.2.7-3 1.6zM562.5 410.1c-1.6 1.1-5.9 3.5-9.5 5.4-3.6 1.8-8.3 5.2-10.5 7.4l-3.9 4.1h4.5c4.3 0 4.8-.3 13.9-9.5 5.2-5.2 9.2-9.5 9-9.4-.3 0-1.8.9-3.5 2zM532.1 423.6c-6.6 2.1-7.4 3.4-2 3.4 3.6 0 5.1-.5 6.9-2.5 2.7-2.9 1.8-3-4.9-.9zM511 470.8c0 24.2-.3 48-.6 53l-.7 9.2H515v-53c0-52.3 0-53-2-53s-2 .7-2 43.8zM748.2 444.6c-3.2 2.2-2.6 6.5 1 7.8 2.2.8 3.2.6 4.8-.9 2.5-2.3 2.5-4 0-6.5-2.4-2.4-2.9-2.4-5.8-.4zM523 446.5v2.5h91.5l22 22 22 22h9.8c9.7 0 9.9 0 12.4-3 2-2.4 3.3-3 6.4-3 8.6 0 12.3 10 5.8 15.4-1.7 1.4-3.9 2.6-4.9 2.6-3 0-6.8-2.1-8.5-4.7-1.5-2.2-2.1-2.3-12.8-2.3h-11.2l-22-22-22-22H523v22h60.5l23 23 23 23h45.9l2.6-3.2c5.6-6.7 16-2.9 16 5.8 0 8.1-10.3 11.6-16 5.4l-2.8-3h-47.7l-23-23-23-23H523v11h47.5l30.5 30.5 30.6 30.5h59.9l12.8-13c12.4-12.6 12.7-13 12.7-17.4 0-4.1-.3-4.6-3.7-6.3-2.1-1-4.8-3.4-6.1-5.3-2-2.9-2.3-4.5-2-9.2.3-3.8 1.1-6.4 2.3-7.8 1.9-2.1 1.8-2.2-10.5-14.5L684.5 467h-35L638 455.5 626.5 444H523v2.5z"/><path d="M305.5 460.6c-1.1.1-8.3.8-16 1.4-18 1.5-20.4 3-22.5 13.8-1.3 7.2-.7 8.2 4.9 8.2 6.8 0 27.6-2.7 34.6-4.5 7.6-2 10.2-3.9 14.3-10.5 5.1-8.5 4.7-9-5-8.9-4.6.1-9.2.3-10.3.5zM486.9 473.5c-4.5 2.3-12.4 11.8-16.4 19.5-2.3 4.5-1.6 9.2 1.7 10.8 3.4 1.6 17.1 3.4 22.6 3l4.3-.3V490c0-14.5-.2-16.6-1.7-17.7-2.5-1.9-5.3-1.5-10.5 1.2zM683.6 493.1c-3 4.3 2 9.3 6.3 6.3 2.3-1.7 2.8-5.3.9-7.2-1.9-1.9-5.5-1.4-7.2.9zM717.3 496c-4.6 1.9-5.7 8.3-2 11.8 4.8 4.5 11.7 1.4 11.7-5.1 0-5.1-5-8.6-9.7-6.7zM682 521c-1.1 1.1-2 2.6-2 3.4 0 2 2.8 4.6 5 4.6 2.1 0 5-2.5 5-4.4 0-1.7-2.2-4.2-4.3-4.9-1.1-.4-2.5.1-3.7 1.3zM595.9 558.9c-1.7 1.3-2.3 2.9-2.3 5.6 0 4.6 3.1 7.5 7.9 7.5 3.8 0 7.5-3.7 7.5-7.5 0-1.2-.9-3.4-2.1-4.9-2.5-3.2-7.5-3.5-11-.7zM715.6 167.9c-2.6 2.9-1.8 8.2 1.7 10.1 2.4 1.3 3 1.3 5.5 0 5.5-3.1 3.4-12-2.8-12-1.5 0-3.5.9-4.4 1.9zM616.2 174.9c-.8.4-1.2 1.9-1 3.2.4 3.3 5.3 4 6.3.9 1.1-3.6-2.2-6.1-5.3-4.1zM821.6 390.9c-4.4 4.8 2.2 10.8 6.7 6.2 2-2 2.1-2.3.7-4.9-1.9-3.4-5-3.9-7.4-1.3zM731.3 470.6c-.8 2.2 1 4.9 3.2 4.9 1 0 2.2-.7 2.8-1.6 1.5-2.4.1-4.9-2.8-4.9-1.5 0-2.8.7-3.2 1.6z"/></svg>